<svg width="1280" height="320" viewBox="0 0 1280 320" xmlns="http://www.w3.org/2000/svg" xmlns:xlink="http://www.w3.org/1999/xlink" role="img" aria-labelledby="title desc">
  <title id="title">EchoScan</title>
  <desc id="desc">EchoScan — Content Distinctiveness and Information-Gain Auditor, built by Brewcontent.ai (brewcontent.ai)</desc>

  <!-- Gradient defs below are copied verbatim from the real Brewcontent.ai
       logo (assets/brewcontent-logo.svg) so the mini badge further down is
       the exact brand mark, not a redrawn approximation. -->
  <defs>
    <linearGradient id="bc-mini-gradient" x1="4.6" y1="170.1" x2="336.6" y2="170.1" gradientUnits="userSpaceOnUse">
      <stop offset="0" stop-color="#680fd2"/>
      <stop offset="1" stop-color="#ff9df4"/>
    </linearGradient>
    <linearGradient id="bc-mini-gradient1" x1="181.2" y1="125.8" x2="217.2" y2="148.2" xlink:href="#bc-mini-gradient"/>
    <linearGradient id="bc-mini-gradient2" x1="214.9" y1="137.2" x2="234.8" y2="179.9" gradientUnits="userSpaceOnUse">
      <stop offset="0" stop-color="#680fd2"/>
      <stop offset="1" stop-color="#ca9dff"/>
    </linearGradient>
    <linearGradient id="bc-mini-gradient3" x1="241.8" y1="167.5" x2="235.6" y2="215.9" xlink:href="#bc-mini-gradient"/>
    <linearGradient id="bc-mini-gradient4" x1="214.4" y1="247.9" x2="250.4" y2="211.8" gradientUnits="userSpaceOnUse">
      <stop offset="0" stop-color="#ca9dff"/>
      <stop offset="1" stop-color="#680fd2"/>
    </linearGradient>
  </defs>

  <!-- flat background, no gradients -->
  <rect width="1280" height="320" fill="#0b1120"/>

  <!-- subtle grid texture for depth without gradients -->
  <g opacity="0.35">
    <line x1="0" y1="80" x2="1280" y2="80" stroke="#1e293b" stroke-width="1"/>
    <line x1="0" y1="160" x2="1280" y2="160" stroke="#1e293b" stroke-width="1"/>
    <line x1="0" y1="240" x2="1280" y2="240" stroke="#1e293b" stroke-width="1"/>
  </g>

  <!-- echo / scan rings motif, right side -->
  <g transform="translate(980,160)" fill="none" stroke-linecap="round">
    <circle r="36" stroke="#22d3ee" stroke-width="6"/>
    <circle r="72" stroke="#22d3ee" stroke-width="5" opacity="0.75"/>
    <circle r="108" stroke="#22d3ee" stroke-width="4" opacity="0.5"/>
    <circle r="144" stroke="#a855f7" stroke-width="3" opacity="0.35"/>
    <!-- scan sweep line -->
    <line x1="0" y1="0" x2="140" y2="-70" stroke="#a855f7" stroke-width="4" opacity="0.8"/>
    <circle r="10" fill="#22d3ee"/>
  </g>

  <!-- wordmark -->
  <text x="180" y="150" font-family="'Helvetica Neue', Arial, sans-serif" font-size="72" font-weight="700" fill="#f8fafc">Echo<tspan fill="#22d3ee">Scan</tspan></text>

  <!-- tagline -->
  <text x="182" y="188" font-family="'Helvetica Neue', Arial, sans-serif" font-size="22" fill="#94a3b8">Content Distinctiveness &amp; Information-Gain Auditor</text>

  <!-- built by: mini Brewcontent.ai logo lockup (icon + wordmark + url) -->
  <g transform="translate(182,214)">
    <text x="0" y="14" font-family="'Helvetica Neue', Arial, sans-serif" font-size="16" fill="#64748b">Built by</text>

    <!-- mini icon badge: exact Brewcontent.ai mark, scaled down (path data
         unmodified, only a group-level scale/translate transform applied) -->
    <g transform="translate(78,-8) scale(0.0762)">
      <rect x="9.6" y="9.1" width="322" height="322" rx="43.8" ry="43.8" fill="#ffffff"/>
      <path d="M287.8,336.1H53.3c-26.9,0-48.8-21.9-48.8-48.8V52.9C4.6,26,26.4,4.1,53.3,4.1h234.4c26.9,0,48.8,21.9,48.8,48.8v234.4c0,26.9-21.9,48.8-48.8,48.8ZM53.3,14.1c-21.4,0-38.8,17.4-38.8,38.7v234.4c0,21.4,17.4,38.8,38.8,38.8h234.4c21.4,0,38.7-17.4,38.7-38.8V52.9c0-21.4-17.4-38.7-38.7-38.7H53.3Z" fill="url(#bc-mini-gradient)"/>
      <path d="M235.7,267.5c-3.2,3.1-4.6,4.5-9.1,7.6-.4.3-.8.6-1.3.9l-8.9,4.8c-1.2.7-2.4,1.3-3.6,1.8,0,0-.1,0-.2.1h-.1c-12.4,5.9-25.6,8.8-39.4,8.8s-35.1-5.1-50-14.6c-14.5-9.3-26.1-22.4-33.6-37.9l-.2-.4c-1.2-2.5-2.2-5-3.2-7.5-3.8-10.3-5.8-21.2-5.8-32.3V51.1c0-1.3,1.1-2.4,2.4-2.4h29.7c1.3,0,2.4,1.1,2.4,2.4v116.2c-.1,7-.2,13.4-.3,18.5-.4,23.1,3,45.9,23.7,59.8,19.4,13,45.9,11,63.8-3.6,0,0,.1,0,.2-.1,2.1-1.8,4.1-3.7,6-5.8,0,0,0,0,0,0h0s.2.3.2.3l1.4,1.6,4.4,5.1,1.3,1.5.3.3.2.2s1.4,1.6,1.4,1.6l3.8,4.4.8.9,1.7,2,1.3,1.5v.2c.1,0,4.1,4.6,4.1,4.6l4.7,5.4,1.5,1.7.4.4Z" fill="#680fd2"/>
      <path d="M223.4,138.2s-10,13-15.2,19.6c-.9,1.2-1.8,2.3-2.5,3.2-6.3-6.6-17.9-12-17.9-12.1,0,0,0,0,0,0-.3-.1-.7-.3-1-.4-1.1-.4-2.2-.8-3.3-1.2,1.5-8.2,4.5-25.1,4.5-25.1l1.2-6.2.8-4.1s0,0,0,0h0c5.5,2.6,10.8,5.7,15.7,9.3h0c6.4,4.7,12.2,10.2,17.3,16.4.1.2.3.4.4.6Z" fill="url(#bc-mini-gradient1)"/>
      <path d="M247.9,173.8h0s-5.2,1.8-5.2,1.8l-2.9,1-12.6,4.4-.6.2-4.5,1.6-2.4.8c0,.3.1.6.2.9,0-.1-.1-.3-.2-.4,0,0,0,0,0,0-.9-2.9-2-5.8-3.3-8.5h0c-2.7-5.5-6.3-10.5-10.5-14.8.7-.9,1.6-2,2.5-3.2,5.2-6.6,15.2-19.6,15.2-19.6l3.4-4.4,2.6-3.3.2-.2c.2.3.4.6.7.9,0,0,0,0,0,0,3.5,4.6,6.5,9.6,9.1,14.8t0,0c3.5,7.1,6.1,14.6,7.6,22.5.4,1.7.7,3.5.9,5.3Z" fill="url(#bc-mini-gradient2)"/>
      <path d="M259.8,178.5h0c0,3.2-.2,6.3-.5,9.5-1.1,10.1-3.9,20.2-8.3,29.6l-9.6-1.1-1.7-.2-7.8-.9-2.1-.3h-1.2c0-.1-4.6-.7-4.6-.7l-1.6-.2-2.3-.3c1.1-4,1.7-8.1,1.8-12.4,0-.6,0-1.2,0-1.7,0-4.8-.6-9.5-1.8-13.9h0c0-.4-.1-.8-.2-1.2h0c0-.3-.1-.6-.2-1l2.4-.8,4.5-1.6.6-.2,12.6-4.4,2.9-1,5.2-1.8h0s6.7-2.3,6.7-2.3l2.9-1,2-.7c.3,2.9.4,5.8.4,8.7Z" fill="url(#bc-mini-gradient3)"/>
      <path d="M260.7,218.7c-.3.7-.5,1.3-.8,2-.4,1-.8,2-1.3,3-6.4,14.2-16.5,26.9-29.4,36.4l-4-4.6v-.2c-.1,0-1.5-1.5-1.5-1.5l-1.7-2-.8-.9-3.8-4.4h0s-1.4-1.6-1.4-1.6l-.2-.2-.3-.3-1.3-1.5-5.8-6.6-.2-.2h0s0,0,0,0h0s0,0,0,0c0,0,0,0,0,0,.3-.3.5-.6.8-.9.6-.7,1.2-1.5,1.8-2.2,0,0,0,0,0,0,3.6-4.8,6.4-10.1,8.3-15.9,0-.3.2-.6.3-.8.2-.7.4-1.4.6-2.1l2.3.3,1.6.2,4.6.6h1.2c0,.1,2.1.4,2.1.4l7.8.9,1.7.2,9.6,1.1,8.7,1h.8c0,0,.3.1.3.1Z" fill="url(#bc-mini-gradient4)"/>
      <path d="M167.8,161l3,15.6c1.9,9.8,9.5,17.5,19.3,19.3l15.6,3-15.6,3c-9.8,1.9-17.5,9.5-19.3,19.3l-3,15.6-3-15.6c-1.9-9.8-9.5-17.5-19.3-19.3l-15.6-3,15.6-3c9.8-1.9,17.5-9.5,19.3-19.3l3-15.6Z" fill="#8f34db"/>
    </g>

    <text x="112" y="14" font-family="'Helvetica Neue', Arial, sans-serif" font-size="19" font-weight="700" fill="#c084fc">Brewcontent.ai</text>
    <text x="112" y="34" font-family="'Helvetica Neue', Arial, sans-serif" font-size="13" fill="#64748b">brewcontent.ai</text>
  </g>
</svg>
