<?xml version="1.0" encoding="UTF-8"?>
<svg id="Layer_1" xmlns="http://www.w3.org/2000/svg" version="1.1" xmlns:xlink="http://www.w3.org/1999/xlink" viewBox="0 0 2000 340.2">
  <!-- Generator: Adobe Illustrator 30.2.1, SVG Export Plug-In . SVG Version: 2.1.1 Build 1)  -->
  <defs>
    <linearGradient id="linear-gradient" x1="4.6" y1="170.1" x2="336.6" y2="170.1" gradientUnits="userSpaceOnUse">
      <stop offset="0" stop-color="#680fd2"/>
      <stop offset="1" stop-color="#ff9df4"/>
    </linearGradient>
    <linearGradient id="linear-gradient1" x1="181.2" y1="125.8" x2="217.2" y2="148.2" xlink:href="#linear-gradient"/>
    <linearGradient id="linear-gradient2" x1="214.9" y1="137.2" x2="234.8" y2="179.9" gradientUnits="userSpaceOnUse">
      <stop offset="0" stop-color="#680fd2"/>
      <stop offset="1" stop-color="#ca9dff"/>
    </linearGradient>
    <linearGradient id="linear-gradient3" x1="241.8" y1="167.5" x2="235.6" y2="215.9" xlink:href="#linear-gradient"/>
    <linearGradient id="linear-gradient4" x1="214.4" y1="247.9" x2="250.4" y2="211.8" gradientUnits="userSpaceOnUse">
      <stop offset="0" stop-color="#ca9dff"/>
      <stop offset="1" stop-color="#680fd2"/>
    </linearGradient>
  </defs>
  <g>
    <rect x="9.6" y="9.1" width="322" height="322" rx="43.8" ry="43.8" fill="#fff"/>
    <path d="M287.8,336.1H53.3c-26.9,0-48.8-21.9-48.8-48.8V52.9C4.6,26,26.4,4.1,53.3,4.1h234.4c26.9,0,48.8,21.9,48.8,48.8v234.4c0,26.9-21.9,48.8-48.8,48.8ZM53.3,14.1c-21.4,0-38.8,17.4-38.8,38.7v234.4c0,21.4,17.4,38.8,38.8,38.8h234.4c21.4,0,38.7-17.4,38.7-38.8V52.9c0-21.4-17.4-38.7-38.7-38.7H53.3Z" fill="url(#linear-gradient)"/>
  </g>
  <g>
    <g>
      <path d="M235.7,267.5c-3.2,3.1-4.6,4.5-9.1,7.6-.4.3-.8.6-1.3.9l-8.9,4.8c-1.2.7-2.4,1.3-3.6,1.8,0,0-.1,0-.2.1h-.1c-12.4,5.9-25.6,8.8-39.4,8.8s-35.1-5.1-50-14.6c-14.5-9.3-26.1-22.4-33.6-37.9l-.2-.4c-1.2-2.5-2.2-5-3.2-7.5-3.8-10.3-5.8-21.2-5.8-32.3V51.1c0-1.3,1.1-2.4,2.4-2.4h29.7c1.3,0,2.4,1.1,2.4,2.4v116.2c-.1,7-.2,13.4-.3,18.5-.4,23.1,3,45.9,23.7,59.8,19.4,13,45.9,11,63.8-3.6,0,0,.1,0,.2-.1,2.1-1.8,4.1-3.7,6-5.8,0,0,0,0,0,0h0s.2.3.2.3l1.4,1.6,4.4,5.1,1.3,1.5.3.3.2.2s1.4,1.6,1.4,1.6l3.8,4.4.8.9,1.7,2,1.3,1.5v.2c.1,0,4.1,4.6,4.1,4.6l4.7,5.4,1.5,1.7.4.4Z" fill="#680fd2"/>
      <path d="M223.4,138.2s-10,13-15.2,19.6c-.9,1.2-1.8,2.3-2.5,3.2-6.3-6.6-17.9-12-17.9-12.1,0,0,0,0,0,0-.3-.1-.7-.3-1-.4-1.1-.4-2.2-.8-3.3-1.2,1.5-8.2,4.5-25.1,4.5-25.1l1.2-6.2.8-4.1s0,0,0,0h0c5.5,2.6,10.8,5.7,15.7,9.3h0c6.4,4.7,12.2,10.2,17.3,16.4.1.2.3.4.4.6Z" fill="url(#linear-gradient1)"/>
      <path d="M247.9,173.8h0s-5.2,1.8-5.2,1.8l-2.9,1-12.6,4.4-.6.2-4.5,1.6-2.4.8c0,.3.1.6.2.9,0-.1-.1-.3-.2-.4,0,0,0,0,0,0-.9-2.9-2-5.8-3.3-8.5h0c-2.7-5.5-6.3-10.5-10.5-14.8.7-.9,1.6-2,2.5-3.2,5.2-6.6,15.2-19.6,15.2-19.6l3.4-4.4,2.6-3.3.2-.2c.2.3.4.6.7.9,0,0,0,0,0,0,3.5,4.6,6.5,9.6,9.1,14.8t0,0c3.5,7.1,6.1,14.6,7.6,22.5.4,1.7.7,3.5.9,5.3Z" fill="url(#linear-gradient2)"/>
      <path d="M259.8,178.5h0c0,3.2-.2,6.3-.5,9.5-1.1,10.1-3.9,20.2-8.3,29.6l-9.6-1.1-1.7-.2-7.8-.9-2.1-.3h-1.2c0-.1-4.6-.7-4.6-.7l-1.6-.2-2.3-.3c1.1-4,1.7-8.1,1.8-12.4,0-.6,0-1.2,0-1.7,0-4.8-.6-9.5-1.8-13.9h0c0-.4-.1-.8-.2-1.2h0c0-.3-.1-.6-.2-1l2.4-.8,4.5-1.6.6-.2,12.6-4.4,2.9-1,5.2-1.8h0s6.7-2.3,6.7-2.3l2.9-1,2-.7c.3,2.9.4,5.8.4,8.7Z" fill="url(#linear-gradient3)"/>
    </g>
    <path d="M260.7,218.7c-.3.7-.5,1.3-.8,2-.4,1-.8,2-1.3,3-6.4,14.2-16.5,26.9-29.4,36.4l-4-4.6v-.2c-.1,0-1.5-1.5-1.5-1.5l-1.7-2-.8-.9-3.8-4.4h0s-1.4-1.6-1.4-1.6l-.2-.2-.3-.3-1.3-1.5-5.8-6.6-.2-.2h0s0,0,0,0h0s0,0,0,0c0,0,0,0,0,0,.3-.3.5-.6.8-.9.6-.7,1.2-1.5,1.8-2.2,0,0,0,0,0,0,3.6-4.8,6.4-10.1,8.3-15.9,0-.3.2-.6.3-.8.2-.7.4-1.4.6-2.1l2.3.3,1.6.2,4.6.6h1.2c0,.1,2.1.4,2.1.4l7.8.9,1.7.2,9.6,1.1,8.7,1h.8c0,0,.3.1.3.1Z" fill="url(#linear-gradient4)"/>
  </g>
  <g>
    <path d="M416.1,82h70.4c33.9,0,53.1,16.5,53.1,45.7s-20.2,36.8-40.2,36.8v2.4c20,0,48.3,4.5,48.6,40.7.3,32.8-22.6,47.8-57,47.8h-74.9V82ZM511.2,131.6c0-13.4-5.5-22.6-25-22.6h-41.8v42.8h43.9c16,0,22.9-7.4,22.9-20.2ZM519.6,202.8c0-17.1-12.9-24.2-31.3-24.2h-43.9v49.6h43.9c21.8,0,31.3-9.5,31.3-25.5Z" fill="#a86cef"/>
    <path d="M624.6,145c-10.8-.3-18.4,2.6-28.1,13.1l-.5,97.2h-27.1V122.2h27.6v21.5c5.5-13.1,19.7-24.4,39.9-24.2,27.6.3,36.5,20.8,36,46.8l-26.5.5c-1.1-15.2-11.6-21.5-21.3-21.8Z" fill="#a86cef"/>
    <path d="M755.4,258c-36.5-.8-66.7-22.9-67.2-68.8,0-39.4,23.9-69.3,66.5-69.3s62.8,23.9,64.9,60.4c.5,5.8.3,11-.5,17.3h-102.7c3.4,24.4,19.4,36,38.3,36.2,17.9,1.1,32-8.9,35.2-25.5h27.3c-2.6,30.5-30.7,50.7-61.7,49.6ZM792.2,177.3v-1.1c0-20-15.8-32.3-38.1-32.3s-34.7,12.6-37.6,33.4h75.6Z" fill="#a86cef"/>
    <path d="M863.9,122.2l18,98.1h.4l32.2-96.4h35.1l32,96.4h.9l18-98.1h33.1l-34.8,133.2h-33l-33.4-102.9h-1.3s-32.7,102.9-32.7,102.9h-33l-35-133.2h33.6Z" fill="#a86cef"/>
    <path d="M1113.4,258.2c-38.3-1.1-68.8-22.6-69.3-68.6,0-38.9,24.2-70.4,69.6-70.4s63.3,19.4,63.8,53.3h-27.1c-1.6-17.9-16.5-28.1-38.1-28.1s-40.2,16-40.4,44.9c.3,28.6,18.1,43.1,40.7,43.6,21.3.8,36.5-11.3,37.8-28.9h27.1c-.3,32.8-29.7,54.9-64.1,54.1Z" fill="#a86cef"/>
    <path d="M1265.8,257.7c-38.9,0-67.2-24.7-67.2-69.3s28.4-68.8,67.2-68.8,67,25.2,67,68.8-27.8,69.3-67,69.3ZM1265.8,145.8c-25.2,0-38.9,16.3-38.9,42.6s12.6,42.3,38.9,42.3,38.6-14.7,38.6-42.3-13.4-42.6-38.6-42.6Z" fill="#a86cef"/>
    <path d="M1381.1,122.2v37.6h3.2l.5-5.8c1.8-20.5,18.9-34.4,42.6-34.1,35.7,0,48.9,22.3,48.9,52.5v83h-27.3v-78.8c0-19.7-8.7-29.2-28.1-29.4-25.2-.3-39.7,15-39.7,41.8v66.5h-27.3V122.2h27.3Z" fill="#a86cef"/>
    <path d="M1491.9,149.5v-27.3h17.3c5.3,0,9.7-2.9,10-11.6l.3-28.6h29.4l-.3,20.8c-.3,11.3-7.6,15.8-17.6,16.8l-5,.5v2.1h58.6v27.3h-37.6v69.1c0,8.4,5.5,13.1,13.7,13.1,5.8.3,13.1-1.3,18.6-6.6l11,23.6c-6.6,5-18.9,9.2-31,9.2-27.3,0-40.7-16.8-40.7-37.3v-71.2h-26.8Z" fill="#a86cef"/>
    <path d="M1673.4,258c-36.5-.8-66.7-22.9-67.2-68.8,0-39.4,23.9-69.3,66.5-69.3s62.8,23.9,64.9,60.4c.5,5.8.3,11-.5,17.3h-102.7c3.4,24.4,19.4,36,38.3,36.2,17.9,1.1,32-8.9,35.2-25.5h27.3c-2.6,30.5-30.7,50.7-61.7,49.6ZM1710.2,177.3v-1.1c0-20-15.8-32.3-38.1-32.3s-34.7,12.6-37.6,33.4h75.6Z" fill="#a86cef"/>
    <path d="M1786.1,122.2v37.6h3.2l.5-5.8c1.8-20.5,18.9-34.4,42.6-34.1,35.7,0,48.9,22.3,48.9,52.5v83h-27.3v-78.8c0-19.7-8.7-29.2-28.1-29.4-25.2-.3-39.7,15-39.7,41.8v66.5h-27.3V122.2h27.3Z" fill="#a86cef"/>
    <path d="M1896.9,149.5v-27.3h17.3c5.3,0,9.7-2.9,10-11.6l.3-28.6h29.4l-.3,20.8c-.3,11.3-7.6,15.8-17.6,16.8l-5,.5v2.1h58.6v27.3h-37.6v69.1c0,8.4,5.5,13.1,13.7,13.1,5.8.3,13.1-1.3,18.6-6.6l11,23.6c-6.6,5-18.9,9.2-31,9.2-27.3,0-40.7-16.8-40.7-37.3v-71.2h-26.8Z" fill="#a86cef"/>
  </g>
  <path d="M167.8,161l3,15.6c1.9,9.8,9.5,17.5,19.3,19.3l15.6,3-15.6,3c-9.8,1.9-17.5,9.5-19.3,19.3l-3,15.6-3-15.6c-1.9-9.8-9.5-17.5-19.3-19.3l-15.6-3,15.6-3c9.8-1.9,17.5-9.5,19.3-19.3l3-15.6Z" fill="#8f34db"/>
</svg>
